<svg xmlns="http://www.w3.org/2000/svg" width="24" height="24" viewBox="0 0 24 24">
    <g fill="none" fill-rule="evenodd">
        <path d="M0 0L24 0 24 24 0 24z"/>
        <path fill="#7E7E7E" d="M9.203 7v9.85c0 1.99-1.692 3.15-3.662 3.15-2.393 0-3.336-1.71-3.336-2.876 0-.8.36-2.337 1.72-2.806 1.361-.47 2.338-.308 3.278.232V5.02c0-.674.724-2.02 1.825-2.017L12 3.007h-.08c.026-.005.052-.007.079-.007h8c1.01 0 2 .941 2 2.044V16.85c0 1.99-1.693 3.15-3.663 3.15C15.943 20 15 18.29 15 17.124c0-.8.36-2.337 1.72-2.806 1.361-.47 2.339-.308 3.279.232V7H9.203z"/>
    </g>
</svg>
