<svg xmlns="http://www.w3.org/2000/svg" width="24" height="24" viewBox="0 0 24 24" fill="none">
    <path fill="#000" d="M8.433 17.25c.24.138.321.444.183.683l-1.5 2.598c-.138.24-.444.321-.683.183-.24-.138-.321-.444-.183-.683l1.5-2.598c.138-.24.444-.321.683-.183zm3 0c.24.138.321.444.183.683l-1.5 2.598c-.138.24-.444.321-.683.183-.24-.138-.321-.444-.183-.683l1.5-2.598c.138-.24.444-.321.683-.183zm3 0c.24.138.321.444.183.683l-1.5 2.598c-.138.24-.444.321-.683.183-.24-.138-.321-.444-.183-.683l1.5-2.598c.138-.24.444-.321.683-.183zm3.067 0c.24.138.321.444.183.683l-1.5 2.598c-.138.24-.444.321-.683.183-.24-.138-.321-.444-.183-.683l1.5-2.598c.138-.24.444-.321.683-.183zM12 3c3.033 0 5.558 2.104 6.133 4.907C20.292 8.054 22 9.793 22 11.938 22 14.18 20.133 16 17.833 16H7c-2.758 0-5-2.186-5-4.875 0-2.51 1.95-4.582 4.458-4.843C7.5 4.332 9.592 3 12 3z"/>
</svg>
