<svg xmlns="http://www.w3.org/2000/svg" width="24" height="24" viewBox="0 0 24 24">
    <g fill="none" fill-rule="evenodd">
        <path d="M0 0L24 0 24 24 0 24z"/>
        <path fill="#7E7E7E" d="M12 4c3.64 0 6.67 2.59 7.36 6.04C21.95 10.22 24 12.36 24 15c0 2.76-2.24 5-5 5H6c-3.31 0-6-2.69-6-6 0-3.09 2.34-5.64 5.35-5.96C6.6 5.64 9.11 4 12 4zm2.083 4H10.54c-.297 0-.54.217-.54.483v4.343c0 .265.243.483.54.483h1.08v3.45c0 .246.362.333.502.12l2.803-4.294c.21-.324-.048-.724-.464-.724h-1.22l1.344-3.21c.135-.313-.124-.651-.502-.651z"/>
    </g>
</svg>
