<svg xmlns="http://www.w3.org/2000/svg" width="24" height="24" viewBox="0 0 24 24" fill="none">
    <path fill="#000" d="M5.09 2l.112.006c.44.05.794.392.868.844C6.48 5.2 8.53 6.99 10.99 7h2.54c1.3 0 1.97.72 2.36 1.11l3.76 3.77c.39.39.39 1.02 0 1.41l-.094.083c-.392.305-.956.277-1.316-.083L15 10.05V21c0 .55-.45 1-1 1l-.116-.007C13.388 21.935 13 21.511 13 21v-5h-2v5c0 .55-.45 1-1 1l-.116-.007C9.388 21.935 9 21.511 9 21V8.71C6.47 7.95 4.53 5.8 4.09 3.14 4 2.54 4.48 2 5.09 2zM12 2c1.105 0 2 .895 2 2s-.895 2-2 2-2-.895-2-2 .895-2 2-2z"/>
</svg>